<?xml version="1.0" standalone="no"?>
<!DOCTYPE svg PUBLIC "-//W3C//DTD SVG 20010904//EN"
 "http://www.w3.org/TR/2001/REC-SVG-20010904/DTD/svg10.dtd">
<svg version="1.0" xmlns="http://www.w3.org/2000/svg"
 width="512.000000pt" height="512.000000pt" viewBox="0 0 512.000000 512.000000"
 preserveAspectRatio="xMidYMid meet">

<g transform="translate(0.000000,512.000000) scale(0.100000,-0.100000)"
fill="#01A3FF" stroke="none">
<path d="M950 5083 c-47 -8 -87 -17 -90 -19 -2 -3 141 -150 319 -328 l323
-323 -85 -317 c-47 -175 -87 -319 -89 -321 -2 -2 -145 -41 -318 -88 l-315 -84
-326 325 c-260 258 -328 321 -332 306 -35 -121 -42 -364 -15 -499 47 -227 148
-422 305 -582 289 -295 712 -415 1106 -313 l72 18 1365 -1362 c868 -867 1384
-1375 1418 -1395 119 -75 288 -101 426 -65 178 46 329 192 382 369 24 81 24
229 0 310 -39 133 0 91 -1458 1551 l-1380 1381 16 72 c55 242 10 558 -111 781
-234 433 -726 669 -1213 583z m3767 -4428 c139 -70 152 -259 25 -350 -34 -23
-55 -30 -105 -33 -79 -4 -138 24 -182 86 -27 39 -30 52 -30 117 0 65 3 78 30
116 61 87 165 112 262 64z"/>
</g>
</svg>
