<?xml version="1.0" standalone="no"?>
<!DOCTYPE svg PUBLIC "-//W3C//DTD SVG 20010904//EN"
 "http://www.w3.org/TR/2001/REC-SVG-20010904/DTD/svg10.dtd">
<svg version="1.0" xmlns="http://www.w3.org/2000/svg"
 width="358.000000pt" height="358.000000pt" viewBox="0 0 358.000000 358.000000"
 preserveAspectRatio="xMidYMid meet">
<metadata>
Created by potrace 1.14, written by Peter Selinger 2001-2017
</metadata>
<g transform="translate(0.000000,358.000000) scale(0.100000,-0.100000)"
fill="#000000" stroke="none">
<path d="M80 1790 l0 -1790 475 0 475 0 0 463 0 463 24 21 c13 12 26 21 28 20
1 -1 2 0 1 2 -7 11 20 29 35 24 14 -4 14 -3 3 5 -11 8 -10 12 8 23 11 8 21 17
21 20 0 13 72 79 80 74 5 -3 12 0 16 6 4 8 3 9 -4 5 -7 -4 -12 -4 -12 1 0 10
80 88 90 88 5 0 12 4 17 9 5 6 2 6 -7 1 -10 -5 -8 0 4 13 11 12 22 20 25 17 2
-3 10 7 16 21 10 26 12 26 28 10 9 -10 14 -22 11 -28 -4 -6 -3 -8 3 -5 11 7
73 -64 73 -83 0 -6 4 -8 10 -5 5 3 10 0 10 -7 0 -7 9 -19 21 -26 12 -8 18 -19
15 -28 -3 -8 -2 -13 3 -10 5 3 17 -6 27 -20 11 -14 38 -46 61 -72 33 -38 39
-50 30 -61 -10 -12 -9 -13 2 -7 14 9 80 -58 81 -82 0 -7 4 -10 10 -7 9 6 14
-8 11 -28 -1 -5 3 -6 8 -3 5 3 15 -1 22 -10 10 -13 10 -17 -2 -25 -11 -8 -10
-9 6 -7 12 2 19 -2 17 -10 -1 -6 2 -11 6 -10 4 2 23 -14 41 -34 18 -21 31 -38
28 -38 -2 0 10 -16 29 -37 18 -20 30 -41 27 -46 -3 -6 -1 -7 4 -4 6 4 18 -3
26 -16 8 -12 29 -38 46 -57 17 -19 29 -40 26 -47 -2 -8 2 -10 13 -6 9 3 14 2
10 -2 -5 -5 1 -14 12 -22 11 -8 20 -21 20 -29 0 -8 5 -12 10 -9 6 3 10 0 10
-7 0 -8 9 -20 20 -28 11 -8 20 -19 20 -25 0 -6 9 -16 21 -23 12 -7 18 -16 15
-19 -3 -3 5 -15 19 -27 36 -32 75 -88 68 -99 -3 -6 -1 -7 5 -3 13 8 54 -43 45
-57 -3 -5 -2 -7 4 -4 5 4 23 -10 39 -30 16 -20 39 -47 50 -60 l21 -23 527 0
526 0 0 93 0 92 -226 285 c-124 157 -238 301 -252 320 -15 19 -31 40 -37 46
-5 6 -22 26 -36 45 -80 103 -233 297 -247 314 -10 11 -42 52 -72 90 -30 39
-57 72 -60 75 -3 3 -51 64 -107 135 -56 72 -169 216 -252 320 -83 105 -150
195 -151 202 0 6 13 22 29 36 17 14 27 28 23 32 -4 5 1 5 11 2 11 -4 16 -3 12
3 -3 6 1 13 9 16 9 3 16 10 16 15 0 15 42 59 52 53 4 -3 8 1 8 9 0 18 34 49
44 40 4 -5 6 -3 5 2 -5 15 24 55 40 55 8 0 11 3 8 6 -4 4 11 24 33 45 22 22
40 43 40 49 0 9 15 14 33 11 5 -1 6 3 2 9 -3 5 16 32 42 59 26 28 54 57 61 66
7 8 18 13 23 9 5 -3 8 0 7 8 -2 7 2 12 9 11 7 -2 10 3 7 10 -2 7 25 40 60 75
36 34 62 62 60 62 -3 0 2 8 12 18 10 9 20 16 22 14 3 -2 10 7 17 20 6 13 17
22 23 20 7 -1 11 2 10 6 -4 10 74 102 85 102 5 0 5 -5 1 -12 -4 -7 -3 -8 4 -4
6 4 8 14 5 23 -5 12 -2 15 10 10 10 -4 14 -2 11 6 -5 14 142 173 157 169 6 -1
8 2 5 6 -7 12 28 44 39 35 4 -5 5 -2 1 5 -9 15 32 59 49 54 5 -2 7 0 3 4 -4 4
4 18 18 31 14 12 21 23 17 23 -4 0 6 9 22 20 17 11 26 20 20 20 -5 0 9 18 32
39 22 22 38 42 35 45 -3 3 0 6 7 6 7 0 19 7 27 15 9 8 13 15 10 15 -4 0 17 24
46 54 29 30 62 66 73 80 21 26 42 36 29 14 -4 -7 -3 -10 1 -5 5 4 9 16 10 27
2 20 -7 20 -580 20 l-582 0 -93 -97 c-314 -331 -390 -411 -430 -453 -25 -25
-101 -106 -170 -179 -69 -73 -154 -164 -190 -201 -75 -78 -316 -332 -384 -404
l-46 -49 0 691 0 692 -475 0 -475 0 0 -1790z"/>
<path d="M3296 3318 c3 -5 10 -6 15 -3 13 9 11 12 -6 12 -8 0 -12 -4 -9 -9z"/>
</g>
</svg>
